:FULLY-SPECIFIED
:FORCE-ALL-JOINTS-BE-3DOF
:DEGREES
113
root 0.69836 17.5781 23.9962 0.938282 -1.6152 0.684141
lfemur 1.77699 7.2145 -17.389
ltibia 72.0533 -0 0
lfoot 14.3842 -4.19673 0.230568
ltoes -15.7478 0 0
rfemur -28.0849 0.340378 23.9647
rtibia 63.0782 -0 0
rfoot -2.70308 -6.99773 -0.00233332
rtoes 8.4275 -0 0
lowerback 17.6515 -2.38995 -0.408446
upperback 1.43724 -3.20974 0.284703
thorax -8.17335 -1.52481 1.29471
lowerneck -6.30617 2.19366 -0.545412
upperneck -8.36002 2.84449 -1.98485
head -1.50362 1.44886 -0.511273
lclavicle -1.387e-14 1.35558e-14 -6.79623e-31
lhumerus -33.0222 -17.5449 90.5098
lradius 109.305 -0 0
lwrist 28.5812 0 0
lhand -38.0612 7.83111 0.00169497
lfingers 7.12502 -0 0
lthumb -11.0983 37.5175 0.00165527
rclavicle -1.387e-14 1.35558e-14 -6.79623e-31
rhumerus -44.9544 9.31891 -84.8187
rradius 87.3463 -0 0
rwrist -3.06564 0 0
rhand -44.0559 37.2558 0.00238131
rfingers 7.12502 -0 0
rthumb -16.875 7.96905 0.00227189
114
root 0.703409 17.5633 24.5439 0.858222 -2.03545 0.484787
lfemur 1.44503 7.68762 -16.9204
ltibia 74.4569 -0 0
lfoot 15.3095 -4.07107 0.222439
ltoes -14.911 0 0
rfemur -27.3179 0.773826 24.3609
rtibia 61.0584 -0 0
rfoot -3.46857 -6.9962 -0.00225119
rtoes 8.26265 -0 0
lowerback 17.6841 -2.32374 -0.113002
upperback 1.45828 -3.0541 0.406062
thorax -8.18475 -1.45824 1.22301
lowerneck -6.33848 2.26664 -0.482066
upperneck -8.38037 2.92784 -2.18636
head -1.50078 1.49122 -0.583816
lclavicle -1.4553e-14 1.30557e-14 -6.55777e-31
lhumerus -34.2015 -17.6394 90.8242
lradius 108.971 -0 0
lwrist 28.5373 0 0
lhand -38.047 7.89095 0.0016355
lfingers 7.12502 -0 0
lthumb -11.0846 37.5781 0.00159719
rclavicle -1.4553e-14 1.30557e-14 -6.55777e-31
rhumerus -44.1906 9.61108 -84.8787
rradius 87.768 -0 0
rwrist -3.06976 0 0
rhand -44.0445 37.3607 0.00229775
rfingers 7.12502 -0 0
rthumb -16.864 8.07303 0.00219217
115
root 0.708458 17.5484 25.0916 0.779603 -2.45597 0.285963
lfemur 1.11662 8.1634 -16.454
ltibia 76.8606 -0 0
lfoot 16.2348 -3.94555 0.212281
ltoes -14.0741 0 0
rfemur -26.5478 1.20192 24.763
rtibia 59.0386 -0 0
rfoot -4.23406 -6.99467 -0.00214854
rtoes 8.09779 -0 0
lowerback 17.7171 -2.25769 0.182466
upperback 1.47965 -2.8985 0.527462
thorax -8.19624 -1.39168 1.15129
lowerneck -6.3707 2.33966 -0.418757
upperneck -8.40102 3.01112 -2.38792
head -1.498 1.53358 -0.656358
lclavicle -1.52359e-14 1.25555e-14 -6.25969e-31
lhumerus -35.3819 -17.7277 91.1407
lradius 108.637 -0 0
lwrist 28.4934 0 0
lhand -38.0328 7.95079 0.00156116
lfingers 7.12502 -0 0
lthumb -11.0708 37.6387 0.00152458
rclavicle -1.52359e-14 1.25555e-14 -6.25969e-31
rhumerus -43.4265 9.90402 -84.9348
rradius 88.1898 -0 0
rwrist -3.07389 0 0
rhand -44.0331 37.4656 0.0021933
rfingers 7.12502 -0 0
rthumb -16.853 8.17701 0.00209252
116
root 0.713507 17.5336 25.6392 0.702418 -2.87676 0.08765
lfemur 0.791724 8.64182 -15.9897
ltibia 79.2642 -0 0
lfoot 17.1602 -3.82022 0.200097
ltoes -13.2373 0 0
rfemur -25.7746 1.62456 25.1709
rtibia 57.0188 -0 0
rfoot -4.99956 -6.99313 -0.0020254
rtoes 7.93293 -0 0
lowerback 17.7504 -2.19182 0.477958
upperback 1.50136 -2.74294 0.648903
thorax -8.20781 -1.32514 1.07957
lowerneck -6.40285 2.41271 -0.355486
upperneck -8.42197 3.09433 -2.58952
head -1.49527 1.57594 -0.728899
lclavicle -1.59188e-14 1.20553e-14 -5.90199e-31
lhumerus -36.5633 -17.8098 91.4593
lradius 108.303 -0 0
lwrist 28.4495 0 0
lhand -38.0185 8.01063 0.00147195
lfingers 7.12502 -0 0
lthumb -11.0571 37.6993 0.00143746
rclavicle -1.59188e-14 1.20553e-14 -5.90199e-31
rhumerus -42.662 10.1977 -84.987
rradius 88.6116 -0 0
rwrist -3.07802 0 0
rhand -44.0216 37.5705 0.00206796
rfingers 7.12502 -0 0
rthumb -16.842 8.28099 0.00197294
117
root 0.718556 17.5187 26.1869 0.626663 -3.29782 -0.110174
lfemur 0.470343 9.12282 -15.5276
ltibia 81.6679 -0 0
lfoot 18.0854 -3.69509 0.185891
ltoes -12.4004 0 0
rfemur -24.9982 2.04165 25.5845
rtibia 54.9989 -0 0
rfoot -5.76505 -6.9916 -0.0018818
rtoes 7.76807 -0 0
lowerback 17.784 -2.12612 0.773476
upperback 1.52338 -2.58743 0.770388
thorax -8.21947 -1.2586 1.00783
lowerneck -6.43492 2.4858 -0.292253
upperneck -8.4432 3.17746 -2.79117
head -1.4926 1.61831 -0.801441
lclavicle -1.66017e-14 1.15552e-14 -5.48468e-31
lhumerus -37.7457 -17.8856 91.7797
lradius 107.968 -0 0
lwrist 28.4057 0 0
lhand -38.0043 8.07047 0.00136787
lfingers 7.12502 -0 0
lthumb -11.0434 37.7599 0.00133582
rclavicle -1.66017e-14 1.15552e-14 -5.48468e-31
rhumerus -41.8971 10.492 -85.0353
rradius 89.0334 -0 0
rwrist -3.08215 0 0
rhand -44.0102 37.6754 0.00192174
rfingers 7.12502 -0 0
rthumb -16.831 8.38497 0.00183343
118
root 0.723605 17.5038 26.7345 0.55233 -3.71913 -0.307529
lfemur 0.152459 9.60635 -15.0677
ltibia 84.0715 -0 0
lfoot 19.0107 -3.57022 0.169666
ltoes -11.5636 0 0
rfemur -24.2186 2.45309 26.0039
rtibia 52.9791 -0 0
rfoot -6.53055 -6.99007 -0.00171775
rtoes 7.60321 -0 0
lowerback 17.818 -2.0606 1.06902
upperback 1.54574 -2.43197 0.891919
thorax -8.2312 -1.19209 0.936082
lowerneck -6.46691 2.55893 -0.229057
upperneck -8.46474 3.26051 -2.99286
head -1.48998 1.66068 -0.873981
lclavicle -1.72846e-14 1.1055e-14 -5.00775e-31
lhumerus -38.929 -17.955 92.1018
lradius 107.634 -0 0
lwrist 28.3618 0 0
lhand -37.99 8.13031 0.00124892
lfingers 7.12502 -0 0
lthumb -11.0296 37.8204 0.00121966
rclavicle -1.72846e-14 1.1055e-14 -5.00775e-31
rhumerus -41.1317 10.7869 -85.0796
rradius 89.4552 -0 0
rwrist -3.08628 0 0
rhand -43.9988 37.7804 0.00175462
rfingers 7.12502 -0 0
rthumb -16.8201 8.48895 0.001674
119
root 0.728654 17.489 27.2822 0.479415 -4.1407 -0.504436
lfemur -0.161938 10.0924 -14.6097
ltibia 86.4751 -0 0
lfoot 19.9359 -3.44562 0.151427
ltoes -10.7268 0 0
rfemur -23.4357 2.85877 26.429
rtibia 50.9593 -0 0
rfoot -7.29604 -6.98855 -0.0015333
rtoes 7.43836 -0 0
lowerback 17.8523 -1.99525 1.36459
upperback 1.56842 -2.27656 1.0135
thorax -8.24302 -1.12559 0.864321
lowerneck -6.49882 2.63209 -0.165898
upperneck -8.48657 3.34349 -3.1946
head -1.48741 1.70305 -0.946521
lclavicle -1.79676e-14 1.05548e-14 -4.47121e-31
lhumerus -40.1132 -18.0182 92.4255
lradius 107.3 -0 0
lwrist 28.3179 0 0
lhand -37.9758 8.19016 0.0011151
lfingers 7.12502 -0 0
lthumb -11.0159 37.881 0.00108898
rclavicle -1.79676e-14 1.05548e-14 -4.47121e-31
rhumerus -40.3657 11.0824 -85.1199
rradius 89.8769 -0 0
rwrist -3.09041 0 0
rhand -43.9874 37.8853 0.00156662
rfingers 7.12502 -0 0
rthumb -16.8091 8.59293 0.00149463
